<svg width="24" height="24" viewBox="0 0 24 24" fill="none" xmlns="http://www.w3.org/2000/svg">
<path fill-rule="evenodd" clip-rule="evenodd" d="M11.5335 2.25142C12.4786 2.22923 13.4644 2.46944 14.2485 3.01906L19.8092 6.92053C19.8096 6.92078 19.81 6.92104 19.8103 6.92129C20.3802 7.31938 20.8565 7.92963 21.1892 8.56776C21.5221 9.20639 21.75 9.94758 21.75 10.6448V17.2058C21.75 19.6997 19.7153 21.75 17.211 21.75H6.789C4.28351 21.75 2.25 19.6986 2.25 17.1968V10.5186C2.25 9.86417 2.45604 9.15998 2.75625 8.54727C3.05653 7.93441 3.48731 7.33903 4.00586 6.93506C4.00576 6.93514 4.00596 6.93499 4.00586 6.93506L8.85662 3.15006C9.61386 2.56028 10.5885 2.27361 11.5335 2.25142ZM9.77885 4.33306C9.77877 4.33312 9.77893 4.333 9.77885 4.33306L4.92838 8.11783C4.63706 8.34473 4.33391 8.7365 4.10325 9.20726C3.87246 9.67829 3.75 10.1547 3.75 10.5186V17.1968C3.75 18.8767 5.11849 20.25 6.789 20.25H17.211C18.8827 20.25 20.25 18.8756 20.25 17.2058V10.6448C20.25 10.2516 20.1134 9.74904 19.8591 9.26113C19.6047 8.77313 19.2714 8.37436 18.9508 8.15058L18.9492 8.14951L13.3875 4.24735C13.3874 4.24729 13.3876 4.24741 13.3875 4.24735C12.9116 3.91388 12.2548 3.7349 11.5687 3.75101C10.8826 3.76712 10.2366 3.97665 9.77885 4.33306Z" fill="#0D0D0D"/>
<path fill-rule="evenodd" clip-rule="evenodd" d="M12 14.25C12.4142 14.25 12.75 14.5858 12.75 15V17C12.75 17.4142 12.4142 17.75 12 17.75C11.5858 17.75 11.25 17.4142 11.25 17V15C11.25 14.5858 11.5858 14.25 12 14.25Z" fill="#0D0D0D"/>
</svg>
